<svg viewBox="0 0 269.55 270.26" xmlns="http://www.w3.org/2000/svg" xmlns:xlink="http://www.w3.org/1999/xlink"><linearGradient id="a" gradientUnits="userSpaceOnUse" x1="23.25" x2="242.83" y1="200.4" y2="200.4"><stop offset="0" stop-color="#a05c94"/><stop offset="1" stop-color="#814d82"/></linearGradient><linearGradient id="b" gradientUnits="userSpaceOnUse" x1="59.97" x2="206.11" y1="152.37" y2="152.37"><stop offset="0" stop-color="#814d82"/><stop offset="1" stop-color="#a05c94"/></linearGradient><linearGradient id="c" gradientUnits="userSpaceOnUse" x1="133.04" x2="133.04" y1="137.31" y2="156.06"><stop offset="0" stop-color="#fecb3e"/><stop offset="1" stop-color="#fea13e"/></linearGradient><linearGradient id="d" x1="133.04" x2="133.04" xlink:href="#c" y1="146.05" y2="174.19"/><linearGradient id="e" x1="133.04" x2="133.04" xlink:href="#c" y1="155.73" y2="183.26"/><linearGradient id="f" x1="133.04" x2="133.04" xlink:href="#c" y1="169.36" y2="212.48"/><linearGradient id="g" x1="23.25" x2="239.74" xlink:href="#a" y1="225.01" y2="225.01"/><linearGradient id="h" x1="145.43" x2="233.27" xlink:href="#a" y1="225.01" y2="225.01"/><linearGradient id="i" gradientTransform="matrix(-.70710678 .70710678 -.70710678 -.70710678 122.89 275.4)" gradientUnits="userSpaceOnUse" x1=".69" x2="8.13" y1="163.15" y2="163.15"><stop offset="0" stop-color="#42b4dd"/><stop offset="1" stop-color="#1857c6"/></linearGradient><linearGradient id="j" gradientTransform="matrix(.70710678 .70710678 -.70710678 .70710678 116.66 44.67)" x1=".69" x2="8.13" xlink:href="#i" y1="163.15" y2="163.15"/><linearGradient id="k" gradientTransform="matrix(-.70710678 .70710678 -.70710678 -.70710678 -406.7 -2946.7)" gradientUnits="userSpaceOnUse" x1="1663.2" x2="1672.03" y1="-2604.12" y2="-2604.12"><stop offset="0" stop-color="#7900df"/><stop offset="1" stop-color="#7972ff"/></linearGradient><linearGradient id="l" gradientTransform="matrix(.70710678 .70710678 -.70710678 .70710678 -2765.06 736.08)" x1="1663.2" x2="1672.03" xlink:href="#k" y1="-2604.12" y2="-2604.12"/><linearGradient id="m" gradientUnits="userSpaceOnUse" x1="241.1" x2="244.59" y1="62.6" y2="62.6"><stop offset="0" stop-color="#a75d90"/><stop offset="1" stop-color="#e53f86"/></linearGradient><linearGradient id="n" x1="244.73" x2="254.65" xlink:href="#c" y1="152.06" y2="152.06"/><linearGradient id="o" x1="146.25" x2="156.16" xlink:href="#k" y1="34.72" y2="34.72"/><linearGradient id="p" gradientUnits="userSpaceOnUse" x1="185.1" x2="190.06" y1="116" y2="116"><stop offset="0" stop-color="#1ab247"/><stop offset="1" stop-color="#1a4247"/></linearGradient><linearGradient id="q" gradientUnits="userSpaceOnUse" x1="78.06" x2="83.02" y1="89.1" y2="89.1"><stop offset="0" stop-color="#e53f86"/><stop offset="1" stop-color="#a75d90"/></linearGradient><linearGradient id="r" x1="70.62" x2="75.58" xlink:href="#q" y1="6" y2="6"/><linearGradient id="s" x1="59.09" x2="67.6" xlink:href="#i" y1="101.68" y2="101.68"/><linearGradient id="t" x1="11.59" x2="17.8" xlink:href="#c" y1="151.05" y2="151.05"/><linearGradient id="u" x1="23.33" x2="29.53" xlink:href="#c" y1="27.61" y2="27.61"/><linearGradient id="v" gradientTransform="matrix(1.05 0 0 -1 4033.16 -1824.12)" gradientUnits="userSpaceOnUse" x1="-3707.89" x2="-3691.9" y1="-1903.26" y2="-1903.26"><stop offset="0" stop-color="#a74e90"/><stop offset="1" stop-color="#e53f86"/></linearGradient><linearGradient id="w" gradientTransform="matrix(1.05 0 0 1 721.12 -21.24)" x1="-585.47" x2="-569.49" xlink:href="#v" y1="89.01" y2="89.01"/><linearGradient id="x" gradientTransform="translate(-640.79 705.82)" x1="757.67" x2="801.35" xlink:href="#v" y1="-622.54" y2="-622.54"/><linearGradient id="y" gradientTransform="matrix(.97253266 .23276646 -.23276646 .97253266 -764.28 507.29)" gradientUnits="userSpaceOnUse" x1="773.22" x2="785.8" y1="-641.23" y2="-641.23"><stop offset="0" stop-color="#9c5d90"/><stop offset="1" stop-color="#862666"/></linearGradient><linearGradient id="z" gradientTransform="matrix(.97564952 -.21933539 .21933539 .97564952 593.93 -593.02)" gradientUnits="userSpaceOnUse" x1="-678.42" x2="-637.86" y1="524.61" y2="484.38"><stop offset="0" stop-color="#7972ff"/><stop offset="1" stop-color="#7900df"/></linearGradient><linearGradient id="A" x1="-644.64" x2="-635.78" xlink:href="#z" y1="486.8" y2="486.8"/><linearGradient id="B" gradientTransform="matrix(-.98 .22 .22 .98 -1280.85 -171.68)" x1="-1249.18" x2="-1240.32" xlink:href="#z" y1="486.8" y2="486.8"/><linearGradient id="C" gradientTransform="translate(717.01 -460.69)" x1="-659.29" x2="-656.14" xlink:href="#z" y1="488.3" y2="488.3"/><linearGradient id="D" gradientTransform="matrix(.98037453 -.19714404 .19714404 .98037453 522.03 -477.91)" x1="-398.19" x2="-398.19" xlink:href="#c" y1="504.48" y2="525"/><linearGradient id="E" gradientTransform="matrix(.98037453 -.19714404 .19714404 .98037453 522.03 -477.91)" x1="-416.37" x2="-412.82" xlink:href="#c" y1="512.74" y2="512.74"/><linearGradient id="F" gradientTransform="matrix(.98037453 -.19714404 .19714404 .98037453 522.03 -477.91)" x1="-411.39" x2="-407.85" xlink:href="#c" y1="510.91" y2="510.91"/><linearGradient id="G" gradientTransform="matrix(.98037453 -.19714404 .19714404 .98037453 522.03 -477.91)" x1="-406.45" x2="-402.91" xlink:href="#c" y1="509.13" y2="509.13"/><linearGradient id="H" gradientTransform="matrix(.98037453 -.19714404 .19714404 .98037453 522.03 -477.91)" x1="-401.92" x2="-398.37" xlink:href="#c" y1="507.49" y2="507.49"/><linearGradient id="I" gradientTransform="translate(473.34 -389.13)" x1="-465.58" x2="-423.9" xlink:href="#i" y1="499.4" y2="499.4"/><linearGradient id="J" gradientTransform="matrix(.98911881 -.14711891 .14711891 .98911881 395.05 -449.11)" x1="-465.58" x2="-447.9" xlink:href="#i" y1="508.96" y2="508.96"/><linearGradient id="K" gradientTransform="matrix(.98911881 -.14711891 .14711891 .98911881 395.05 -449.11)" gradientUnits="userSpaceOnUse" x1="-465.58" x2="-423.9" y1="482.14" y2="482.14"><stop offset="0" stop-color="#079eff"/><stop offset="1" stop-color="#008"/></linearGradient><linearGradient id="L" gradientTransform="matrix(.98185957 -.18960957 .18960957 .98185957 529.69 -313.86)" x1="-407.78" x2="-353.11" xlink:href="#i" y1="294.33" y2="294.33"/><path d="m206.09 130.55h-146.11l-36.73 45.62v94.09h219.58v-94.09z" fill="url(#a)"/><path d="m59.97 130.55h146.14v43.64h-146.14z" fill="url(#b)"/><path d="m72.67 136.84h120.74v19.83h-120.74z" fill="url(#c)"/><path d="m63.34 145.35h139.39v29.77h-139.39z" fill="url(#d)"/><path d="m55.17 155.04h155.74v29.12h-155.74z" fill="url(#e)"/><path d="m46.47 166.06h173.14v51.14h-173.14z" fill="url(#f)"/><path d="m196.15 183.62-11.36 14.81a19.06 19.06 0 0 1 -15.12 7.46h-73.26a19.06 19.06 0 0 1 -15.12-7.46l-11.36-14.81a19.05 19.05 0 0 0 -15.12-7.45h-31.56v94.09h219.58v-94.09h-31.56a19.05 19.05 0 0 0 -15.12 7.45z" fill="#a05c94"/><path d="m196.15 187.22-11.36 14.78a19.05 19.05 0 0 1 -15.12 7.45h-73.26a19.05 19.05 0 0 1 -15.12-7.45l-11.36-14.78a19.06 19.06 0 0 0 -15.12-7.46h-31.56v90.5h216.49v-90.5h-28.47a19.06 19.06 0 0 0 -15.12 7.46z" fill="url(#g)"/><path d="m154.3 270.26h85.44v-90.5h-21.1c-12.7 64.48-64.34 90.5-64.34 90.5z" fill="url(#h)"/><path d="m28.05 265.1v-85.34h-4.8v90.5h216.49v-5.16z" fill="#693b72"/><g fill="#1f5161"><rect height="11.93" rx="1.53" transform="matrix(-1 0 0 -1 219.17 35.64)" width="3.43" x="107.87" y="11.85"/><rect height="11.93" rx="1.53" transform="matrix(0 -1 1 0 91.77 127.4)" width="3.43" x="107.87" y="11.85"/><rect height="11.93" rx="1.53" transform="matrix(-.70710678 -.70710678 .70710678 -.70710678 79.85 259.97)" width="3.43" x="92.05" y="107.48"/><rect height="11.93" rx="1.53" transform="matrix(.70710678 -.70710678 .70710678 .70710678 -52.75 99.53)" width="3.43" x="92.05" y="107.48"/><rect height="8.75" rx="1.12" transform="matrix(-.70710678 -.70710678 .70710678 -.70710678 221.76 98.9)" width="2.52" x="130.1" y="-.85"/><rect height="8.75" rx="1.12" transform="matrix(.70710678 -.70710678 .70710678 .70710678 35.98 93.92)" width="2.52" x="130.1" y="-.85"/></g><rect fill="url(#i)" height="9.25" rx="1.18" transform="matrix(-.70710678 -.70710678 .70710678 -.70710678 -107.84 281.63)" width="2.66" x="3.08" y="158.53"/><rect fill="url(#j)" height="9.25" rx="1.18" transform="matrix(.70710678 -.70710678 .70710678 .70710678 -114.07 50.9)" width="2.66" x="3.08" y="158.53"/><rect fill="url(#k)" height="10.97" rx="1.4" transform="matrix(0 -1 1 0 181.64 329.38)" width="3.16" x="253.93" y="68.39"/><rect fill="url(#l)" height="10.97" rx="1.4" width="3.16" x="253.93" y="68.39"/><circle cx="266.06" cy="141.33" fill="#479bc2" r="3.49"/><circle cx="242.85" cy="62.6" fill="url(#m)" r="1.75"/><circle cx="249.69" cy="152.06" fill="url(#n)" r="4.96"/><circle cx="151.2" cy="34.72" fill="url(#o)" r="4.96"/><circle cx="187.58" cy="116" fill="url(#p)" r="2.48"/><circle cx="80.54" cy="89.1" fill="url(#q)" r="2.48"/><circle cx="73.1" cy="6" fill="url(#r)" r="2.48"/><circle cx="63.34" cy="101.68" fill="url(#s)" r="4.26"/><circle cx="14.69" cy="151.05" fill="url(#t)" r="3.1"/><circle cx="26.43" cy="27.61" fill="url(#u)" r="3.1"/><circle cx="6.68" cy="71.01" fill="none" r="5.71" stroke="#ffcc3f" stroke-miterlimit="10" stroke-width="1.94"/><circle cx="177.75" cy="102.4" fill="none" r="4.87" stroke="#ffcc3f" stroke-miterlimit="10" stroke-width="1.65"/><circle cx="178.24" cy="17.84" fill="none" r="6.09" stroke="#ffcc3f" stroke-miterlimit="10" stroke-width="2.06"/><path d="m156.23 71.15h18.55v17.27h-18.55z" fill="#d8b1d7" transform="matrix(-.70895556 -.70525316 .70525316 -.70895556 226.56 253.07)"/><path d="m156.49 70.5h16.71v17.27h-16.71z" fill="url(#v)" transform="matrix(-.70895556 -.70525316 .70525316 -.70895556 225.9 251.51)"/><path d="m107.2 59.42h18.55v17.27h-18.55z" fill="#d8b1d7" transform="matrix(.9513796 -.30802088 .30802088 .9513796 -15.3 39.18)"/><path d="m109 59.13h16.71v17.27h-16.71z" fill="url(#w)" transform="matrix(.9513796 -.30802088 .30802088 .9513796 -15.17 39.43)"/><path d="m116.88 61.44h43.68v43.68h-43.68z" fill="url(#x)" transform="matrix(.97253266 .23276646 -.23276646 .97253266 23.19 -30)"/><path d="m141.74 70.68a8.88 8.88 0 0 0 10.7-6.57l-17.27-4.11a8.88 8.88 0 0 0 6.57 10.68z" fill="#d8b1d7"/><path d="m142.34 68.16a6.28 6.28 0 0 0 7.58-4.65l-12.23-2.93a6.28 6.28 0 0 0 4.65 7.58z" fill="url(#y)"/><path d="m78.15 16.1-21.19 4.76-21.18 4.77 5.69 43.23 21.35-4.8-1.09-22.01 8.42 20.36 21.35-4.79z" fill="url(#z)"/><path d="m78.15 16.1-7.53 1.69a9.52 9.52 0 0 0 .2 1.49 9.75 9.75 0 0 0 10.77 7.52z" fill="url(#A)"/><path d="m35.79 25.62 7.53-1.69a9.52 9.52 0 0 1 .45 1.43 9.73 9.73 0 0 1 -6.52 11.4z" fill="url(#B)"/><path d="m35.97 27.11 42.64-9.58-.46-1.43-21.19 4.76-21.18 4.77z" fill="#b3e1f1"/><path d="m57.73 22h3.15a0 0 0 0 1 0 0v8.31a2.89 2.89 0 0 1 -2.88 2.9h-.26a0 0 0 0 1 0 0v-11.21a0 0 0 0 1 -.01 0z" fill="url(#C)" transform="matrix(.97564952 -.21933539 .21933539 .97564952 -4.61 13.67)"/><path d="m62.65 60.57-21.63 4.87.45 3.42 21.35-4.8z" fill="#b3e1f1"/><path d="m70.15 62.41 21.35-4.79-1.06-3.29-21.62 4.86z" fill="#b3e1f1"/><path d="m267.12 111.17-59.41 12a3.66 3.66 0 0 1 -4.37-3.3 10.8 10.8 0 0 1 4.2-9.4l3.52-2.71 23.76-14.49a6.07 6.07 0 0 1 5.83-.27l4.14 2a11 11 0 0 0 10.2-.3l4.58-2.59a3.17 3.17 0 0 1 4.18 2.36z" fill="url(#D)"/><path d="m203.49 120.59a3.65 3.65 0 0 0 4.22 2.53l59.41-12-.65-3.25z" fill="#fff5d9"/><path d="m232.78 94.46-21.14 12.9 1.27 2.39a2.43 2.43 0 0 0 3.3 1l17.49-9.41a2.43 2.43 0 0 0 1-3.29z" fill="#fff5d9"/><path d="m218 108.51a1.32 1.32 0 0 0 .47-1.82l-1.53-2.54-2.24 1.37 1.51 2.53a1.32 1.32 0 0 0 1.79.46z" fill="url(#E)"/><path d="m222.49 105.74a1.3 1.3 0 0 0 .47-1.81l-1.53-2.55-2.24 1.37 1.51 2.53a1.32 1.32 0 0 0 1.79.46z" fill="url(#F)"/><path d="m227 103a1.32 1.32 0 0 0 .47-1.82l-1.53-2.55-2.27 1.37 1.52 2.53a1.32 1.32 0 0 0 1.81.47z" fill="url(#G)"/><path d="m231.11 100.51a1.31 1.31 0 0 0 .46-1.81l-1.52-2.55-2.25 1.37 1.52 2.53a1.31 1.31 0 0 0 1.79.46z" fill="url(#H)"/><rect fill="url(#I)" height="41.68" rx="5.41" transform="matrix(.99 -.15 .15 .99 -15.91 5.41)" width="41.68" x="7.76" y="89.42"/><path d="m28.54 131.35-12.14 1.8a5.41 5.41 0 0 1 -6.15-4.55l-2.52-17c2.41 9.24 10.13 20.14 20.81 19.75z" fill="url(#J)"/><path d="m40.8 87.38-30.53 4.54a5.41 5.41 0 0 0 -4.56 6.14l.29 1.75 41.2-6.13-.26-1.75a5.4 5.4 0 0 0 -6.14-4.55z" fill="url(#K)"/><path d="m22.72 109.79c-.14-.91-.91-1.33-2.14-1.15a8 8 0 0 0 -4.34 2.83l-2.13-3a12 12 0 0 1 6.58-3.58c3.41-.5 6.14.9 6.54 3.57.27 1.82-.84 3.93-2.43 6.1l-2.94 4 7.2-1.07.52 3.53-12.81 1.9-.46-2.9 5.18-7.2a5.07 5.07 0 0 0 1.23-3.03z" fill="#fff"/><path d="m43.21 110.35c.82 5.5-1.08 8.9-5.3 9.52s-7.06-2.06-7.88-7.56 1.07-8.87 5.34-9.5 7.02 2.04 7.84 7.54zm-9 1.34c.58 3.84 1.51 5.34 3.21 5.09s2.14-2 1.57-5.81-1.51-5.34-3.19-5.09-2.14 1.94-1.57 5.81z" fill="#fff"/><rect fill="url(#L)" height="49.24" rx="8.76" transform="matrix(.99999328 .00366518 -.00366518 .99999328 .18 -.78)" width="49.24" x="187.31" y="22.63"/><rect fill="#b3e1f1" height="3.9" rx="1.8" transform="matrix(.99999328 .00366518 -.00366518 .99999328 .13 -.78)" width="36.39" x="193.78" y="31.64"/><rect fill="#b3e1f1" height="3.9" rx="1.8" transform="matrix(.99999328 .00366518 -.00366518 .99999328 .16 -.78)" width="36.39" x="193.75" y="40.57"/><rect fill="#b3e1f1" height="3.9" rx="1.33" transform="matrix(.99999328 .00366518 -.00366518 .99999328 .19 -.75)" width="19.87" x="193.72" y="49.46"/><circle cx="121.64" cy="228.78" fill="#fff" r="4.75"/><circle cx="142.76" cy="228.78" fill="#fff" r="4.75"/><path d="m145.46 241.65c2.45 5.29-7.77 9.63-13.25 9.63-5.85 0-15.31-4.62-13.26-9.63 1.86-4.53 7.88 0 13.26 0 5.88-.02 10.86-5.16 13.25 0z" fill="#fff"/></svg>